<?xml version="1.0" encoding="UTF-8"?>
<svg id="Layer_2" data-name="Layer 2" xmlns="http://www.w3.org/2000/svg" viewBox="0 0 487.51 458.18">
  <defs>
    <style>
      .cls-1 {
        fill: #410179;
        stroke-width: 0px;
      }
    </style>
  </defs>
  <g id="Layer_1-2" data-name="Layer 1">
    <path class="cls-1" d="m1.2.28c-.2.3,16,22.4,35.9,49s62.2,83.2,94,125.7l57.8,77.3-3.7,4.2c-2.1,2.3-44.6,48.2-94.4,102C41,412.38.1,456.78,0,457.28c-.2.5,8.5.9,21,.8l21.3-.1,7-7.7c3.9-4.2,40.1-43.3,80.5-87s74.6-80.7,76-82.3l2.5-2.9,20,26.8c11,14.7,41.3,55.3,67.3,90.1l47.4,63.2h72.5c60.3,0,72.4-.2,72-1.3-.3-.8-18.7-25.6-40.9-55.3-22.2-29.6-47.6-63.6-56.4-75.4-8.9-11.8-35-46.9-58.2-77.8-23.2-31-42.2-56.8-42.2-57.2,0-.7,122.6-133.8,164.3-178.3L466,.18h-21.9l-21.8.1-25.5,27.6c-14,15.2-48.3,52.4-76.3,82.5l-50.7,54.8-61.5-82.2L146.7.68,74.2.18C34.3-.12,1.4-.02,1.2.28Zm171.8,88.6c23.7,31.8,60.3,80.7,81.3,108.8,21,28,67.6,90.4,103.6,138.5,36,48.2,65.8,88.1,66.3,88.8.6.9-6.5,1.2-32.4,1.2h-33.1l-65.6-87.8C141.7,136.08,65.3,33.88,64.4,32.38c-.6-.9,6.2-1.2,32.3-1.2h33.1l43.2,57.7Z"/>
  </g>
</svg>