<?xml version="1.0" encoding="UTF-8"?>
<svg id="Layer_2" data-name="Layer 2" xmlns="http://www.w3.org/2000/svg" viewBox="0 0 844.56 123.71">
  <defs>
    <style>
      .cls-1 {
        fill: #fff;
        stroke-width: 0px;
      }
    </style>
  </defs>
  <g id="Layer_1-2" data-name="Layer 1">
    <g>
      <path class="cls-1" d="m0,122.68V1.03h26.14c4.78,0,9,.63,12.64,1.88,3.64,1.25,6.95,3.48,9.91,6.66,2.96,3.19,5.01,6.92,6.15,11.19,1.14,4.27,1.71,10.05,1.71,17.34,0,5.47-.32,10.08-.94,13.84-.63,3.76-1.96,7.29-4.02,10.59-2.39,3.99-5.58,7.09-9.57,9.31-3.99,2.22-9.23,3.33-15.72,3.33h-8.88v47.5H0ZM17.43,17.43v41.35h8.37c3.53,0,6.26-.51,8.2-1.54,1.94-1.03,3.36-2.45,4.27-4.27.91-1.71,1.45-3.82,1.62-6.32.17-2.5.26-5.3.26-8.37,0-2.85-.06-5.55-.17-8.12-.11-2.56-.63-4.81-1.54-6.75-.91-1.94-2.28-3.42-4.1-4.44-1.82-1.03-4.44-1.54-7.86-1.54h-9.06Z"/>
      <path class="cls-1" d="m69.54,122.68V1.03h28.02c20.5,0,30.76,11.9,30.76,35.71,0,7.18-1.11,13.27-3.33,18.28-2.22,5.01-6.12,9.06-11.7,12.13l18.79,55.53h-18.45l-16.23-51.94h-10.42v51.94h-17.43Zm17.43-105.25v37.93h9.91c3.08,0,5.52-.43,7.35-1.28,1.82-.85,3.25-2.08,4.27-3.67.91-1.59,1.54-3.56,1.88-5.89.34-2.33.51-5.04.51-8.12s-.17-5.78-.51-8.12c-.34-2.33-1.02-4.36-2.05-6.07-2.17-3.19-6.27-4.78-12.3-4.78h-9.06Z"/>
      <path class="cls-1" d="m142.84,122.68V1.03h17.43v121.65h-17.43Z"/>
      <path class="cls-1" d="m176.5,122.68V1.03h16.74l26.31,73.3h.34V1.03h17.43v121.65h-16.4l-26.65-73.13h-.34v73.13h-17.43Z"/>
      <path class="cls-1" d="m264.49,122.68V17.43h-20.16V1.03h57.75v16.4h-20.16v105.25h-17.43Z"/>
      <path class="cls-1" d="m309.77,122.68V1.03h26.14c4.78,0,9,.63,12.64,1.88,3.64,1.25,6.95,3.48,9.91,6.66,2.96,3.19,5.01,6.92,6.15,11.19,1.14,4.27,1.71,10.05,1.71,17.34,0,5.47-.31,10.08-.94,13.84-.63,3.76-1.96,7.29-4.02,10.59-2.39,3.99-5.58,7.09-9.57,9.31-3.99,2.22-9.23,3.33-15.72,3.33h-8.88v47.5h-17.43Zm17.43-105.25v41.35h8.37c3.53,0,6.26-.51,8.2-1.54,1.94-1.03,3.36-2.45,4.27-4.27.91-1.71,1.45-3.82,1.62-6.32.17-2.5.26-5.3.26-8.37,0-2.85-.06-5.55-.17-8.12-.12-2.56-.63-4.81-1.54-6.75-.91-1.94-2.28-3.42-4.1-4.44-1.82-1.03-4.44-1.54-7.86-1.54h-9.06Z"/>
      <path class="cls-1" d="m379.31,122.68V1.03h28.02c20.5,0,30.76,11.9,30.76,35.71,0,7.18-1.11,13.27-3.33,18.28-2.22,5.01-6.12,9.06-11.7,12.13l18.79,55.53h-18.45l-16.23-51.94h-10.42v51.94h-17.43Zm17.43-105.25v37.93h9.91c3.08,0,5.52-.43,7.35-1.28,1.82-.85,3.25-2.08,4.27-3.67.91-1.59,1.54-3.56,1.88-5.89.34-2.33.51-5.04.51-8.12s-.17-5.78-.51-8.12c-.34-2.33-1.03-4.36-2.05-6.07-2.17-3.19-6.27-4.78-12.3-4.78h-9.06Z"/>
      <path class="cls-1" d="m451.07,29.73c0-4.9.85-9.23,2.56-12.99,1.71-3.76,3.99-6.89,6.83-9.4,2.73-2.39,5.84-4.21,9.31-5.47,3.47-1.25,6.98-1.88,10.51-1.88s7.03.63,10.51,1.88c3.47,1.25,6.63,3.08,9.48,5.47,2.73,2.51,4.96,5.64,6.66,9.4,1.71,3.76,2.56,8.09,2.56,12.99v64.24c0,5.13-.85,9.51-2.56,13.16-1.71,3.65-3.93,6.66-6.66,9.06-2.85,2.51-6.01,4.39-9.48,5.64-3.48,1.25-6.98,1.88-10.51,1.88s-7.03-.63-10.51-1.88c-3.48-1.25-6.58-3.13-9.31-5.64-2.85-2.39-5.13-5.41-6.83-9.06-1.71-3.64-2.56-8.03-2.56-13.16V29.73Zm17.43,64.24c0,4.22,1.17,7.32,3.5,9.31,2.33,1.99,5.1,2.99,8.29,2.99s5.95-1,8.29-2.99c2.33-1.99,3.5-5.1,3.5-9.31V29.73c0-4.21-1.17-7.32-3.5-9.31-2.34-1.99-5.1-2.99-8.29-2.99s-5.95,1-8.29,2.99c-2.34,1.99-3.5,5.1-3.5,9.31v64.24Z"/>
      <path class="cls-1" d="m534.28,122.68V17.43h-20.16V1.03h57.75v16.4h-20.16v105.25h-17.43Z"/>
      <path class="cls-1" d="m576.48,29.73c0-4.9.85-9.23,2.56-12.99,1.71-3.76,3.99-6.89,6.83-9.4,2.73-2.39,5.84-4.21,9.31-5.47,3.47-1.25,6.98-1.88,10.51-1.88s7.03.63,10.51,1.88c3.47,1.25,6.63,3.08,9.48,5.47,2.73,2.51,4.96,5.64,6.66,9.4,1.71,3.76,2.56,8.09,2.56,12.99v64.24c0,5.13-.85,9.51-2.56,13.16-1.71,3.65-3.93,6.66-6.66,9.06-2.85,2.51-6.01,4.39-9.48,5.64-3.48,1.25-6.98,1.88-10.51,1.88s-7.03-.63-10.51-1.88c-3.48-1.25-6.58-3.13-9.31-5.64-2.85-2.39-5.13-5.41-6.83-9.06-1.71-3.64-2.56-8.03-2.56-13.16V29.73Zm17.43,64.24c0,4.22,1.17,7.32,3.5,9.31,2.33,1.99,5.1,2.99,8.29,2.99s5.95-1,8.29-2.99c2.33-1.99,3.5-5.1,3.5-9.31V29.73c0-4.21-1.17-7.32-3.5-9.31-2.34-1.99-5.1-2.99-8.29-2.99s-5.95,1-8.29,2.99c-2.34,1.99-3.5,5.1-3.5,9.31v64.24Z"/>
      <path class="cls-1" d="m705.65,87.99v7.52c0,3.76-.71,7.32-2.14,10.68-1.43,3.36-3.39,6.35-5.9,8.97-2.51,2.62-5.44,4.7-8.8,6.24-3.36,1.54-6.98,2.31-10.85,2.31-3.3,0-6.66-.46-10.08-1.37-3.42-.91-6.49-2.5-9.23-4.78-2.73-2.28-4.99-5.21-6.75-8.8-1.77-3.59-2.65-8.17-2.65-13.75V28.02c0-3.99.68-7.69,2.05-11.11,1.37-3.42,3.3-6.38,5.81-8.88s5.49-4.47,8.97-5.89c3.47-1.42,7.32-2.14,11.53-2.14,8.2,0,14.87,2.68,19.99,8.03,2.5,2.62,4.47,5.72,5.9,9.31,1.42,3.59,2.14,7.49,2.14,11.7v6.83h-17.43v-5.81c0-3.42-.97-6.38-2.9-8.89-1.94-2.5-4.56-3.76-7.86-3.76-4.33,0-7.21,1.34-8.63,4.02-1.43,2.68-2.14,6.07-2.14,10.17v62.19c0,3.53.77,6.49,2.31,8.88,1.54,2.39,4.3,3.59,8.29,3.59,1.14,0,2.36-.2,3.67-.6,1.31-.4,2.53-1.05,3.67-1.96,1.03-.91,1.88-2.16,2.56-3.76.68-1.59,1.03-3.59,1.03-5.98v-5.98h17.43Z"/>
      <path class="cls-1" d="m718.81,29.73c0-4.9.85-9.23,2.56-12.99,1.71-3.76,3.99-6.89,6.83-9.4,2.73-2.39,5.84-4.21,9.31-5.47,3.47-1.25,6.98-1.88,10.51-1.88s7.03.63,10.51,1.88c3.47,1.25,6.63,3.08,9.48,5.47,2.73,2.51,4.96,5.64,6.66,9.4,1.71,3.76,2.56,8.09,2.56,12.99v64.24c0,5.13-.85,9.51-2.56,13.16-1.71,3.65-3.93,6.66-6.66,9.06-2.85,2.51-6.01,4.39-9.48,5.64-3.48,1.25-6.98,1.88-10.51,1.88s-7.03-.63-10.51-1.88c-3.48-1.25-6.58-3.13-9.31-5.64-2.85-2.39-5.13-5.41-6.83-9.06-1.71-3.64-2.56-8.03-2.56-13.16V29.73Zm17.43,64.24c0,4.22,1.17,7.32,3.5,9.31,2.33,1.99,5.1,2.99,8.29,2.99s5.95-1,8.29-2.99c2.33-1.99,3.5-5.1,3.5-9.31V29.73c0-4.21-1.17-7.32-3.5-9.31-2.34-1.99-5.1-2.99-8.29-2.99s-5.95,1-8.29,2.99c-2.34,1.99-3.5,5.1-3.5,9.31v64.24Z"/>
      <path class="cls-1" d="m792.62,122.68V1.03h17.43v104.23h34.51v17.43h-51.94Z"/>
    </g>
  </g>
</svg>