<svg width="43" height="65" viewBox="0 0 43 65" fill="none" xmlns="http://www.w3.org/2000/svg" class="text-brand absolute hidden sm:block -right-16 -top-6 transition ease-in-out group-hover:rotate-[15deg] group-hover:-translate-x-2 transform-gpu"><path d="M21.0587 0.665485C20.2061 1.06429 19.5222 1.75276 19.1288 2.60832C18.7354 3.46388 18.6581 4.43098 18.9106 5.3375C19.163 6.24402 19.7289 7.03108 20.5075 7.55859C21.2861 8.0861 22.2269 8.31987 23.1623 8.21817C26.1246 7.88413 29.4727 9.31912 31.901 11.9617C33.9252 14.1653 34.9275 16.8268 34.5169 18.9012C34.245 20.2502 31.529 21.3937 28.913 22.4775C24.2168 24.4488 17.7873 27.1491 16.6081 34.6729C15.453 42.0509 22.0398 46.408 26.841 49.604C28.6648 50.8109 32.0537 53.0537 32.2504 54.0687C32.2038 54.2293 32.134 54.3822 32.0432 54.5226C30.0099 57.923 19.5468 58.364 5.55068 53.2186C4.56437 52.8614 3.47632 52.9097 2.52464 53.3531C1.57295 53.7964 0.835074 54.5987 0.472344 55.5843C0.109613 56.5699 0.151653 57.6588 0.589149 58.6126C1.02665 59.5664 1.82398 60.3075 2.80688 60.6739C7.57113 62.4276 31.7081 70.5563 38.8569 58.5899C40.8894 55.1837 40.5923 51.5819 38.0269 48.444C36.303 46.3378 33.7197 44.631 31.2262 42.9788C27.0248 40.2158 24.0982 38.0804 24.4407 35.9101C24.8872 33.0721 27.1858 31.8245 31.9664 29.8132C36.0881 28.0875 41.2088 25.9337 42.2993 20.4391C43.2352 15.8595 41.5127 10.6778 37.7647 6.59133C33.5962 2.05294 27.8209 -0.28627 22.3147 0.321921C21.8801 0.366349 21.4557 0.482462 21.0587 0.665485Z" fill="#db74dd"></path></svg>