<svg width="98" height="132" viewBox="0 0 98 132" fill="none" xmlns="http://www.w3.org/2000/svg" class="text-brand absolute hidden md:block -left-12 xl:-left-24 -bottom-32 xl:-bottom-44 transition ease-in-out transform-gpu"><path d="M46.9684 132C46.3582 132 45.7557 132 45.1494 131.951C44.6766 131.926 44.2134 131.808 43.7861 131.603C43.3589 131.398 42.976 131.111 42.6593 130.758C42.3426 130.405 42.0982 129.993 41.9403 129.545C41.7824 129.098 41.7139 128.623 41.7388 128.149C41.7637 127.675 41.8815 127.21 42.0854 126.781C42.2893 126.353 42.5753 125.969 42.9272 125.651C43.2791 125.333 43.6899 125.088 44.1362 124.93C44.5825 124.771 45.0556 124.702 45.5283 124.727C59.2502 125.488 80.2707 113.551 88.494 95.2532C90.3887 91.0295 92.8253 83.1715 87.7777 78.0241C85.4623 75.6671 82.4724 74.3669 79.3953 73.7016C78.8117 74.5912 78.1978 75.458 77.546 76.3057C70.2663 85.7757 55.3659 99.5491 44.1982 98.6861C40.3329 98.3896 37.2785 96.4051 35.3686 92.9076C33.7959 90.0412 33.8528 86.6729 35.5278 83.4262C36.8428 80.8829 39.1126 78.3929 42.2807 76.0282C50.4888 69.8924 63.7825 65.2924 75.5111 65.95C79.9145 56.9515 80.4943 46.5046 76.269 41.2051C74.1355 38.5211 70.2057 34.8601 60.7584 34.0465C57.9495 33.8716 55.1304 33.9607 52.3381 34.3127C48.954 44.6038 40.4238 53.7999 32.5492 57.6548C25.6295 61.0421 19.7141 60.046 16.7317 54.9936C13.4121 49.3672 14.837 44.8052 16.6104 41.9654C21.4042 34.3089 34.9517 29.8381 46.4605 27.8993C46.8775 25.1558 46.5865 22.3509 45.6155 19.7523C43.6866 14.8102 39.3741 10.826 33.7846 8.82636C26.1677 6.10057 16.1709 6.92552 4.8781 11.2328C4.43594 11.401 3.96514 11.4803 3.49246 11.466C3.01978 11.4517 2.55454 11.3441 2.12329 11.1494C1.25236 10.7562 0.572784 10.032 0.234084 9.13617C-0.104616 8.24033 -0.0747715 7.24622 0.317165 6.3725C0.709101 5.49878 1.43098 4.81707 2.32397 4.47729C15.4206 -0.510484 26.8195 -1.33547 36.2062 2.02519C43.7549 4.72817 49.6286 10.2292 52.3192 17.1178C53.5254 20.2528 54.0299 23.6155 53.7971 26.9678C56.3162 26.7255 58.8507 26.6861 61.3761 26.85C70.5506 27.6408 77.2656 30.8607 81.9039 36.7039C87.5693 43.8358 87.6603 56.1151 82.8893 67.1666C86.6655 68.1971 90.111 70.1919 92.8898 72.9565C98.8621 79.0391 99.6276 88.0187 95.0385 98.2223C87.5883 114.893 66.7497 132 46.9684 132ZM70.8423 73.1922C69.8684 73.2568 68.9665 73.3519 68.1707 73.4583C60.4022 74.4848 52.1373 77.6934 46.6008 81.822C43.6298 84.0383 40.5641 87.3648 41.6744 89.4253C42.4096 90.7597 43.3266 91.3755 44.7514 91.4858C50.6972 91.961 62.3766 83.6885 70.8423 73.196V73.1922ZM44.0504 35.6889C34.8987 37.6619 25.622 41.2165 22.742 45.8165C21.9841 47.0482 21.3928 48.6639 22.9617 51.3213C24.163 53.359 27.5091 52.1044 29.4266 51.173C34.8722 48.5157 40.7611 42.4938 44.058 35.6927L44.0504 35.6889Z" fill="#db74dd"></path></svg>