<svg width="244" height="141" viewBox="0 0 244 141" fill="none" xmlns="http://www.w3.org/2000/svg" class="text-brand absolute hidden sm:block top-1/3 -left-2/3 transition ease-in-out rotate-45 group-hover:rotate-[42deg] group-hover:translate-x-2 transform-gpu"><path d="M1.48534 83.7452C0.879953 83.1208 0.454887 82.3441 0.255061 81.4971C0.0552359 80.6502 0.0880573 79.7644 0.350089 78.9334C0.612121 78.1025 1.09365 77.3573 1.74371 76.7765C2.39378 76.1958 3.18823 75.801 4.04318 75.634C23.2843 71.8726 46.2561 86.4431 78.0596 106.609C83.9022 110.32 89.9657 114.17 96.3443 118.118C112.822 128.321 128.557 132.31 143.16 130.016C156.767 127.882 164.84 120.901 166.992 118.811C177.501 108.599 176.698 98.2132 175.843 87.2114C175.141 78.1867 174.416 68.8523 180.927 61.0162C188.703 51.6535 200.392 50.0159 210.718 48.5547C218.207 47.4913 225.234 46.4939 228.789 42.7489C236.559 34.4905 234.936 27.31 231.028 9.97227L230.137 5.99246C229.861 4.73987 230.095 3.42801 230.787 2.3455C231.478 1.26299 232.571 0.498446 233.824 0.220134C235.077 -0.058184 236.389 0.172545 237.47 0.86146C238.551 1.55037 239.313 2.64108 239.588 3.89367L240.477 7.84107C244.478 25.6189 247.138 37.3532 235.835 49.3784C229.964 55.6292 220.856 56.905 212.051 58.1417C202.655 59.4785 193.757 60.714 188.375 67.1906C184.364 72.0233 184.863 78.3975 185.486 86.4642C186.382 98.0134 187.497 112.389 173.723 125.76C170.301 129.086 160.596 137.099 144.637 139.591C127.687 142.245 109.721 137.796 91.2408 126.357C84.7981 122.372 78.7309 118.526 72.8633 114.804C44.0739 96.5415 21.3337 82.1216 5.87077 85.1449C5.08018 85.2961 4.26473 85.2473 3.49878 85.0028C2.73282 84.7583 2.04068 84.326 1.48534 83.7452Z" fill="#dd74db"></path></svg>